<svg height="512pt" viewBox="0 0 512 512" width="512pt" xmlns="http://www.w3.org/2000/svg"><path d="m216 289.132812h25v150h-25zm0 0" fill="#7aaaff"/><path d="m211 289.132812h15v150h-15zm0 0" fill="#a3c4ff"/><path d="m376 482c-32.238281 0-47.710938-12.378906-65.628906-26.714844-19.503906-15.601562-41.609375-33.285156-84.371094-33.285156l-120 75h270zm0 0" fill="#a3c4ff"/><path d="m141.628906 455.285156c-17.917968 14.335938-33.390625 26.714844-65.628906 26.714844v15h150v-75c-42.761719 0-64.867188 17.683594-84.371094 33.285156zm0 0" fill="#c7dbff"/><path d="m406 512h-180l-60-15 60-15h180zm0 0" fill="#7aaaff"/><path d="m46 482h180v30h-180zm0 0" fill="#a3c4ff"/><path d="m369.5 0c-78.574219 0-142.5 63.925781-142.5 142.5v30l142.5-58.5 112.5 28.5h30c0-78.574219-63.925781-142.5-142.5-142.5zm0 0" fill="#ffa356"/><path d="m369.5 30c-62.132812 0-112.5 50.367188-112.5 112.5h30l82.5-28.125 82.5 28.125h30c0-62.132812-50.367188-112.5-112.5-112.5zm0 0" fill="#fff"/><path d="m287 142.5 82.5 30v-101.457031h-41.257812c-24.652344 14.265625-41.242188 40.921875-41.242188 71.457031zm0 0" fill="#fff8d9"/><path d="m410.757812 71.042969h-41.257812v101.457031l82.5-30c0-30.535156-16.589844-57.191406-41.242188-71.457031zm0 0" fill="#ffbe4e"/><path d="m369.5 60c-15.03125 0-29.117188 4.019531-41.257812 11.042969l41.257812 71.457031 41.257812-71.457031c-12.140624-7.023438-26.226562-11.042969-41.257812-11.042969zm0 0" fill="#ffe26c"/><path d="m226 142.5-90 90 90 90c28.679688 0 56.933594-7.480469 81.714844-21.628906l91.289062-52.140625c32.6875-18.667969 52.996094-53.625 52.996094-91.230469v-15zm0 0" fill="#a3c4ff"/><path d="m0 142.5v15c0 37.605469 20.308594 72.5625 52.996094 91.230469l91.289062 52.136719c24.78125 14.152343 53.035156 21.632812 81.714844 21.632812v-180zm0 0" fill="#c7dbff"/><path d="m226 172.5-50 95 215.960938-50c14.699218-11.046875 24.84375-27.117188 28.515624-45zm0 0" fill="#c7dbff"/><path d="m31.523438 172.5c3.671874 17.882812 13.816406 33.953125 28.511718 45l165.964844 50v-95zm0 0" fill="#fff"/><path d="m226 217.5-30 37.5 30 37.5c23.46875 0 46.578125-6.113281 66.835938-17.683594l91.289062-52.136718c2.742188-1.566407 5.347656-3.308594 7.835938-5.179688zm0 0" fill="#ff4154"/><path d="m60.035156 217.5c2.492188 1.871094 5.097656 3.613281 7.835938 5.179688l91.292968 52.136718c20.257813 11.570313 43.367188 17.683594 66.835938 17.683594v-75zm0 0" fill="#ff6171"/></svg>